<?xml version="1.0" standalone="no"?>
<!DOCTYPE svg PUBLIC "-//W3C//DTD SVG 20010904//EN"
 "http://www.w3.org/TR/2001/REC-SVG-20010904/DTD/svg10.dtd">
<svg version="1.0" xmlns="http://www.w3.org/2000/svg"
 width="886.000000pt" height="886.000000pt" viewBox="0 0 886.000000 886.000000"
 preserveAspectRatio="xMidYMid meet">

<g transform="translate(0.000000,886.000000) scale(0.100000,-0.100000)"
fill="#000000" stroke="none">
<path d="M3790 7524 c-16 -26 -50 -97 -76 -158 -26 -61 -75 -171 -110 -244
-94 -198 -116 -263 -117 -357 -2 -72 1 -87 32 -150 45 -93 138 -184 236 -231
59 -28 88 -36 156 -41 211 -14 374 75 459 251 38 79 48 142 30 199 -21 67 -28
63 -25 -15 2 -40 1 -57 -2 -38 -2 19 -10 41 -16 49 -9 11 -14 8 -24 -15 l-13
-29 2 35 c1 19 -1 41 -6 48 -4 6 -4 17 -1 22 3 6 1 10 -5 10 -7 0 -23 9 -36
19 -21 16 -22 20 -8 25 16 6 16 8 0 24 -9 10 -16 24 -16 30 0 7 -9 12 -20 12
-11 0 -20 6 -20 13 0 23 -31 78 -41 72 -5 -4 -9 -1 -9 4 0 6 -7 11 -15 11 -8
0 -22 11 -31 25 -9 13 -24 27 -35 30 -25 8 -26 55 -1 55 15 1 15 2 -3 16 -11
8 -20 22 -20 31 0 11 -12 20 -33 24 -18 4 -36 10 -40 14 -4 4 5 5 21 1 15 -3
27 -4 27 -1 0 2 -17 33 -38 67 -21 35 -41 68 -43 73 -13 33 -77 116 -91 121
-10 3 -18 12 -18 19 0 32 -22 23 -50 -21z m60 -38 c-8 -8 -13 -7 -19 3 -5 7
-14 10 -21 6 -9 -6 -9 -3 0 15 11 21 12 21 31 4 14 -12 16 -21 9 -28z m30 -32
c0 -9 -5 -14 -12 -12 -18 6 -21 28 -4 28 9 0 16 -7 16 -16z m70 -108 c0 -2 -7
-7 -16 -10 -8 -3 -12 -2 -9 4 6 10 25 14 25 6z m80 -126 c0 -5 -4 -10 -9 -10
-6 0 -13 5 -16 10 -3 6 1 10 9 10 9 0 16 -4 16 -10z"/>
<path d="M6065 7385 c-33 -13 -92 -33 -132 -45 -125 -37 -256 -142 -299 -241
-10 -21 -21 -39 -25 -39 -4 0 -14 -18 -23 -40 -69 -172 -59 -402 26 -590 43
-94 160 -220 205 -220 20 0 24 -3 14 -9 -11 -7 -5 -15 25 -34 101 -63 202 -98
344 -118 47 -6 89 -15 95 -20 9 -9 51 -199 81 -374 18 -102 76 -322 105 -399
l19 -51 -33 39 c-17 22 -69 81 -114 133 -45 51 -85 98 -90 105 -7 12 -251 237
-279 258 -48 36 -157 111 -180 124 -16 9 -45 26 -64 38 -247 148 -608 283
-910 342 -228 44 -566 65 -743 47 -340 -36 -522 -79 -722 -171 -313 -144 -393
-191 -575 -337 -77 -61 -273 -267 -314 -329 -22 -32 -48 -68 -57 -79 -9 -11
-30 -45 -47 -75 -16 -30 -39 -71 -51 -90 -33 -55 -115 -229 -139 -295 -23 -64
-72 -237 -91 -320 -19 -80 -26 -197 -25 -395 0 -163 4 -207 33 -369 46 -264
81 -406 126 -516 6 -16 20 -55 30 -85 22 -69 91 -215 122 -256 13 -17 23 -36
23 -42 0 -6 4 -12 9 -14 5 -1 33 -39 62 -84 214 -322 366 -499 548 -637 101
-77 276 -198 335 -232 19 -11 74 -43 123 -71 166 -97 245 -133 462 -210 260
-93 476 -134 796 -154 209 -12 331 -4 535 35 154 30 233 52 340 96 118 49 348
165 423 213 192 124 465 371 591 534 60 79 156 223 156 235 0 5 23 54 50 108
68 133 106 251 145 449 53 260 56 295 50 503 -10 311 -35 460 -125 722 -17 50
-38 110 -46 135 -8 25 -23 63 -33 85 -10 22 -38 83 -62 135 -24 52 -61 121
-81 152 -39 58 -46 78 -28 78 17 0 11 53 -15 141 -14 46 -37 135 -51 198 -13
62 -42 184 -63 270 -75 302 -87 365 -82 428 1 6 27 17 59 23 31 7 65 16 74 21
10 5 51 26 93 48 183 96 245 174 325 408 27 78 31 102 26 150 -7 69 -35 198
-50 233 -14 32 -124 197 -153 230 -12 14 -33 38 -47 55 -14 16 -28 26 -32 22
-4 -4 5 -20 20 -36 17 -18 24 -31 17 -35 -6 -4 -11 -2 -11 3 0 6 -4 11 -10 11
-13 0 -50 37 -50 50 0 36 -60 90 -100 90 -12 0 -29 -65 -23 -89 6 -24 -6 -47
-63 -116 -24 -30 -40 -55 -35 -55 6 0 13 5 17 11 13 22 99 69 125 69 44 0 116
-66 154 -142 66 -129 89 -211 67 -245 -5 -8 -47 -10 -147 -7 -77 3 -186 4
-242 4 -120 -1 -119 -2 -133 113 -4 40 -20 146 -34 236 -15 90 -24 171 -21
179 4 11 16 13 48 8 24 -4 76 -9 115 -11 l72 -5 0 30 c0 29 2 30 42 30 42 0
46 11 6 17 -12 2 -31 11 -41 21 -15 14 -41 17 -138 19 -66 1 -136 7 -157 12
-52 15 -78 12 -147 -14z m338 -22 c-13 -2 -35 -2 -50 0 -16 2 -5 4 22 4 28 0
40 -2 28 -4z m-111 -15 c-9 -9 -15 -9 -24 0 -9 9 -7 12 12 12 19 0 21 -3 12
-12z m215 -4 c-3 -3 -12 -4 -19 -1 -8 3 -5 6 6 6 11 1 17 -2 13 -5z m-163 -23
c3 -5 -1 -11 -9 -15 -15 -6 -29 7 -18 18 9 9 21 8 27 -3z m136 -7 c0 -14 -3
-15 -17 -3 -10 7 -20 15 -22 16 -2 2 5 3 17 3 14 0 22 -6 22 -16z m176 -52
c-7 -7 -46 9 -46 18 0 5 11 4 25 -2 14 -6 23 -13 21 -16z m-518 -10 c6 -9 12
-43 12 -77 0 -36 11 -97 26 -149 14 -49 27 -120 30 -159 l4 -71 -35 -29 c-26
-21 -34 -34 -30 -48 7 -22 -3 -25 -19 -5 -9 13 -27 13 -131 1 -172 -20 -301
-20 -313 1 -19 34 40 248 90 324 17 26 52 59 84 79 33 21 54 41 54 52 0 71
183 137 228 81z m496 -6 c25 10 19 -12 -9 -30 -33 -22 -35 -21 -35 15 0 26 3
29 14 20 7 -6 21 -9 30 -5z m90 -97 c-8 -13 -24 -1 -24 18 0 13 3 13 15 3 8
-7 12 -16 9 -21z m-33 -2 c-1 -12 -15 -9 -19 4 -3 6 1 10 8 8 6 -3 11 -8 11
-12z m131 -47 c16 -29 16 -29 -3 -17 -10 6 -19 17 -19 24 0 6 -6 14 -12 16 -9
4 -8 6 2 6 8 1 23 -12 32 -29z m-1152 -29 c0 -10 -35 -51 -44 -51 -11 0 -6 20
10 45 15 23 34 26 34 6z m1110 -1 c0 -5 -4 -10 -10 -10 -5 0 -10 5 -10 10 0 6
5 10 10 10 6 0 10 -4 10 -10z m-1192 -249 c-1 -44 -5 -58 -15 -54 -7 3 -13 11
-13 18 0 7 -3 20 -6 29 -4 11 -1 16 10 16 12 0 15 6 10 25 -4 15 -2 25 4 25 7
0 11 -23 10 -59z m895 -98 c-7 -2 -19 -2 -25 0 -7 3 -2 5 12 5 14 0 19 -2 13
-5z m54 1 c-3 -3 -12 -4 -19 -1 -8 3 -5 6 6 6 11 1 17 -2 13 -5z m-412 -34 c4
-6 -6 -10 -22 -9 -25 0 -26 1 -8 9 11 5 21 9 22 9 1 1 5 -3 8 -9z m717 -26
c36 -78 -117 -344 -231 -404 -20 -10 -47 -24 -61 -31 -14 -6 -36 -17 -50 -24
-14 -7 -41 -16 -61 -20 l-35 -7 -29 144 c-31 152 -41 298 -21 310 6 4 29 8 51
8 51 0 387 39 394 45 12 13 33 3 43 -21z m-452 1 c0 -8 -4 -15 -10 -15 -5 0
-10 7 -10 15 0 8 5 15 10 15 6 0 10 -7 10 -15z m175 5 c-3 -5 -18 -9 -33 -9
l-27 1 30 8 c17 4 31 8 33 9 2 0 0 -3 -3 -9z m-374 -25 c15 -8 30 -19 33 -24
3 -5 15 -91 26 -192 11 -101 22 -194 25 -206 11 -50 1 -55 -111 -49 -111 6
-113 6 -216 72 -52 33 -83 64 -134 133 -36 49 -74 91 -84 94 -45 12 -36 142
11 164 60 29 398 34 450 8z m286 19 c-3 -3 -12 -4 -19 -1 -8 3 -5 6 6 6 11 1
17 -2 13 -5z m494 -91 c-8 -15 -10 -15 -11 -2 0 17 10 32 18 25 2 -3 -1 -13
-7 -23z m-2341 -457 c316 -37 526 -98 840 -243 242 -112 521 -300 652 -440 75
-80 204 -227 239 -272 95 -124 218 -341 312 -551 28 -63 85 -243 107 -335 31
-133 31 -135 20 -135 -5 0 -10 7 -10 16 0 9 -14 59 -32 111 -26 79 -34 92 -43
79 -17 -23 -27 -20 -23 7 2 12 8 21 15 20 14 -3 -2 70 -17 75 -5 2 -8 7 -5 12
7 11 -15 60 -27 60 -12 0 -10 -34 4 -48 9 -9 9 -15 1 -23 -9 -9 -14 -5 -19 17
-9 36 -44 79 -64 79 -24 0 -17 30 8 33 30 4 28 20 -3 28 -14 3 -25 10 -25 15
0 5 -7 6 -15 3 -8 -4 -22 0 -31 7 -12 10 -17 10 -23 1 -6 -9 -19 -9 -57 3 -27
8 -64 15 -81 15 -28 0 -33 3 -33 25 0 23 -4 25 -40 25 -22 0 -40 -3 -40 -7 0
-9 -88 -8 -97 1 -3 3 -1 6 5 6 7 0 12 5 12 10 0 6 -18 10 -40 10 -30 0 -40 4
-40 16 0 11 -6 14 -22 9 -13 -4 -31 -9 -40 -11 -12 -4 -18 0 -18 10 0 11 -9
16 -27 16 -25 0 -26 0 -8 -20 10 -11 16 -22 14 -24 -2 -2 -35 4 -74 14 l-70
17 45 16 c25 8 36 16 25 16 -11 1 -26 10 -33 21 -7 11 -17 20 -22 20 -6 0 -10
-9 -10 -20 0 -17 -7 -20 -40 -20 -36 0 -40 3 -40 25 0 23 -4 25 -40 25 -38 0
-40 2 -40 30 0 28 -2 30 -39 30 -33 0 -40 4 -50 29 -12 27 -15 28 -57 23 -38
-4 -48 -1 -60 17 -8 11 -24 21 -34 21 -11 0 -25 9 -32 20 -7 11 -21 20 -30 20
-13 0 -18 8 -18 31 0 34 -17 36 -34 3 -15 -26 -27 -34 -56 -34 -16 0 -33 -12
-49 -33 -27 -36 -58 -43 -67 -15 -3 10 -10 18 -15 18 -5 0 -9 6 -9 13 0 7 -9
30 -20 51 -10 22 -18 42 -15 45 5 9 -32 57 -39 50 -3 -3 3 -23 14 -44 11 -22
20 -43 20 -49 0 -5 11 -32 24 -60 29 -60 86 -231 86 -255 0 -9 4 -21 9 -26 4
-6 19 -62 32 -125 49 -236 22 -513 -76 -780 -64 -174 -187 -362 -261 -400 -16
-8 -42 -25 -59 -38 -16 -13 -34 -23 -40 -24 -11 0 -75 -23 -122 -44 -17 -8
-38 -14 -47 -14 -9 0 -16 -5 -16 -10 0 -11 34 -5 80 13 14 5 39 13 55 17 103
28 382 154 494 224 264 165 574 276 871 312 232 28 751 7 801 -32 8 -6 21 -13
30 -17 14 -5 29 -53 29 -98 0 -19 -63 -48 -107 -50 -16 -1 -86 4 -158 10 -216
20 -564 1 -715 -39 -19 -5 -64 -16 -100 -25 -155 -37 -220 -60 -380 -133 -94
-43 -304 -149 -350 -177 -33 -20 -271 -138 -315 -156 -19 -8 -103 -37 -225
-78 -222 -76 -482 -134 -740 -165 -136 -17 -514 -14 -605 4 -126 25 -335 82
-445 121 -63 23 -162 57 -220 77 -58 19 -115 42 -128 50 -33 21 -56 73 -81
180 -12 51 -32 123 -45 160 -27 77 -49 163 -43 168 2 3 44 -38 93 -89 182
-190 338 -292 559 -363 229 -74 409 -101 720 -107 169 -4 223 1 385 37 163 36
236 64 316 121 36 26 113 71 170 100 166 85 263 162 305 243 8 15 26 45 41 68
107 161 134 237 168 474 20 134 19 260 0 375 -33 191 -163 573 -244 715 -11
19 -33 60 -49 90 -36 68 -108 171 -159 227 -21 24 -38 46 -38 51 0 25 -292
282 -321 282 -4 0 -14 6 -21 14 -8 8 -46 30 -84 51 -38 20 -76 41 -84 46 -8 5
-45 23 -83 39 -62 29 -96 32 -82 9 4 -5 2 -9 -2 -9 -5 0 -14 9 -21 20 -7 11
-19 20 -28 20 -21 0 -13 20 18 43 16 12 53 22 99 27 116 13 489 5 649 -14z
m-1060 -130 c0 -2 -42 -46 -94 -97 -132 -130 -215 -267 -311 -514 -68 -177
-77 -199 -90 -213 -10 -11 -27 -10 -96 7 -46 11 -104 27 -129 36 -25 9 -64 20
-87 25 -73 17 -153 51 -153 66 0 20 66 113 126 175 65 70 194 190 224 209 12
8 35 25 50 38 15 12 30 22 33 22 3 0 41 22 84 49 203 126 330 185 436 200 4 1
7 -1 7 -3z m448 -157 c40 -28 98 -65 129 -81 146 -78 288 -216 382 -370 l22
-37 -40 -26 c-22 -14 -58 -32 -78 -40 -64 -25 -225 -65 -290 -71 l-61 -7 -11
54 c-5 30 -15 81 -21 114 -5 33 -21 98 -34 145 -14 47 -37 139 -52 205 -14 66
-31 124 -35 130 -13 14 -11 35 4 35 7 0 46 -23 85 -51z m-275 4 c54 -195 132
-591 124 -625 -7 -28 -22 -32 -163 -44 -91 -7 -344 4 -364 16 -11 7 -7 27 20
102 46 129 127 303 168 363 20 28 45 64 56 80 38 55 113 125 134 125 11 0 23
-8 25 -17z m927 -703 c34 -34 103 -193 130 -299 5 -20 14 -54 20 -76 12 -46
40 -202 40 -227 0 -13 -14 -18 -67 -23 -38 -4 -93 -10 -123 -15 -61 -10 -479
-34 -485 -28 -2 2 -6 35 -10 73 -19 220 -46 425 -59 457 -11 24 10 32 189 68
88 17 196 44 240 60 99 34 101 34 125 10z m-1970 -88 c80 -16 183 -36 229 -45
46 -9 88 -20 94 -26 7 -7 4 -54 -8 -143 -15 -116 -19 -222 -12 -398 l2 -45
-75 -7 c-133 -13 -513 -30 -585 -27 l-70 4 -3 39 c-5 56 16 199 40 281 32 109
138 353 171 393 12 16 15 15 217 -26z m2660 -52 c0 -11 -6 -20 -14 -20 -21 0
-31 21 -15 31 22 14 29 11 29 -11z m-1454 -28 c3 -15 8 -34 10 -42 19 -56 50
-455 36 -463 -5 -4 -67 -13 -138 -21 -348 -40 -554 -50 -576 -28 -18 18 -22
255 -6 427 l13 140 174 2 c95 1 175 3 177 6 2 2 71 4 154 5 l150 1 6 -27z
m1278 -38 c6 -16 8 -16 24 0 10 9 29 16 43 16 17 0 20 -3 10 -9 -9 -6 -11 -18
-7 -37 7 -31 -26 -100 -43 -90 -4 3 -14 27 -21 53 -7 27 -17 52 -21 58 -12 12
-11 25 0 25 5 0 12 -7 15 -16z m201 6 c-3 -5 -10 -10 -16 -10 -5 0 -9 5 -9 10
0 6 7 10 16 10 8 0 12 -4 9 -10z m-115 -130 c0 -5 -2 -10 -4 -10 -3 0 -8 5
-11 10 -3 6 -1 10 4 10 6 0 11 -4 11 -10z m-26 -52 c3 -17 6 -40 6 -52 -1 -20
-1 -20 -11 -3 -6 10 -9 21 -6 24 3 2 -1 20 -9 39 -12 28 -12 33 0 28 8 -3 17
-19 20 -36z m116 -127 c0 -5 -9 -7 -20 -4 -11 3 -20 7 -20 9 0 2 9 4 20 4 11
0 20 -4 20 -9z m-80 -22 c0 -11 -4 -17 -10 -14 -5 3 -10 13 -10 21 0 8 5 14
10 14 6 0 10 -9 10 -21z m1280 -9 c0 -11 -6 -20 -14 -20 -21 0 -31 21 -15 31
22 14 29 11 29 -11z m-1265 -40 c3 -5 2 -10 -4 -10 -5 0 -12 -10 -14 -22 -3
-17 -5 -14 -6 10 -1 31 11 43 24 22z m1392 -162 c-3 -7 -5 -2 -5 12 0 14 2 19
5 13 2 -7 2 -19 0 -25z m-1822 -101 c16 -13 17 -25 13 -123 -5 -96 -11 -123
-48 -224 -23 -63 -51 -131 -63 -150 -53 -91 -94 -149 -136 -193 -68 -72 -201
-126 -266 -109 -53 15 -63 42 -89 242 -14 102 -36 263 -50 358 -15 96 -24 178
-20 183 3 5 15 7 27 4 12 -3 114 1 227 9 281 19 382 19 405 3z m-911 -59 c27
-12 27 -10 45 -153 6 -44 22 -156 36 -250 15 -93 33 -217 41 -275 7 -58 23
-136 34 -175 23 -81 26 -135 7 -135 -7 0 -17 4 -23 9 -5 5 -43 15 -84 21 -139
23 -155 27 -215 51 -94 39 -249 136 -294 184 -58 63 -144 242 -200 418 -30 93
-57 249 -46 267 3 6 32 10 63 10 31 0 86 5 122 11 36 6 155 14 265 18 110 4
205 8 212 9 7 1 23 -3 37 -10z m-947 -52 c0 0 11 -50 22 -111 48 -251 125
-469 226 -632 43 -70 49 -84 46 -111 -1 -14 -19 -11 -126 19 -189 55 -189 54
-355 150 -49 28 -206 153 -261 208 -87 87 -152 171 -186 236 -41 79 -79 193
-67 205 5 4 54 11 109 15 55 3 109 8 120 10 11 3 103 7 204 10 101 2 186 7
189 10 4 4 71 -3 79 -9z m3680 -821 c89 -8 172 -19 186 -24 20 -8 27 -22 41
-82 20 -87 16 -92 -69 -85 -33 3 -154 8 -270 12 -169 5 -233 3 -325 -10 -128
-19 -262 -48 -360 -78 -75 -23 -357 -158 -475 -227 -76 -45 -123 -69 -345
-174 -159 -76 -341 -141 -480 -172 -41 -9 -118 -28 -170 -41 -203 -50 -671
-71 -900 -39 -58 8 -159 19 -225 25 -369 33 -369 33 -533 214 -29 32 -51 60
-49 63 7 7 120 -24 262 -71 247 -83 506 -103 930 -71 251 18 673 103 829 167
28 11 85 34 126 50 202 81 360 157 475 228 126 78 347 182 482 226 189 63 353
87 678 103 17 0 103 -6 192 -14z m69 -504 c40 -15 48 -49 25 -109 -24 -67 -52
-75 -231 -67 -123 6 -166 4 -280 -15 -292 -47 -461 -109 -711 -263 -296 -181
-565 -289 -889 -356 -208 -43 -338 -55 -560 -55 -371 1 -637 63 -827 192 -33
23 -63 42 -67 42 -13 0 -50 40 -43 46 4 4 39 -5 79 -19 40 -14 91 -28 113 -32
22 -3 58 -12 80 -20 52 -17 139 -31 310 -51 302 -35 677 6 1012 110 256 80
381 136 693 314 264 150 420 216 600 251 30 6 89 17 130 26 109 21 125 22 340
20 125 -1 206 -6 226 -14z"/>
<path d="M4570 5810 c20 -13 33 -13 25 0 -3 6 -14 10 -23 10 -15 0 -15 -2 -2
-10z"/>
<path d="M4647 5739 c7 -7 15 -10 18 -7 3 3 -2 9 -12 12 -14 6 -15 5 -6 -5z"/>
<path d="M4887 5419 c7 -7 15 -10 18 -7 3 3 -2 9 -12 12 -14 6 -15 5 -6 -5z"/>
<path d="M4960 5315 c0 -3 11 -23 25 -45 14 -22 25 -44 25 -49 0 -5 7 -14 15
-21 8 -7 13 -16 10 -20 -3 -4 2 -10 9 -13 8 -3 17 -1 20 6 3 9 7 8 14 -2 11
-16 32 -7 32 14 0 20 -19 28 -35 15 -17 -14 -50 19 -76 78 -10 23 -23 42 -29
42 -5 0 -10 -2 -10 -5z"/>
<path d="M5120 5256 c0 -9 5 -16 10 -16 6 0 10 4 10 9 0 6 -4 13 -10 16 -5 3
-10 -1 -10 -9z"/>
<path d="M5212 5164 c9 -9 24 -14 32 -11 27 11 17 27 -16 27 -30 0 -31 -1 -16
-16z"/>
<path d="M5133 5134 c-25 -11 -12 -25 20 -23 17 1 40 -2 50 -6 10 -4 21 -5 24
-1 4 3 -1 6 -9 6 -9 0 -18 4 -20 9 -4 12 -49 22 -65 15z"/>
<path d="M5390 5125 c0 -8 5 -15 10 -15 6 0 10 7 10 15 0 8 -4 15 -10 15 -5 0
-10 -7 -10 -15z"/>
<path d="M5139 5096 c-1 -1 -3 -14 -4 -31 -1 -19 6 -37 17 -49 26 -25 33 -14
13 23 -15 30 -15 31 5 31 15 0 20 -7 21 -27 0 -16 3 -23 5 -16 3 7 16 10 32 7
15 -2 34 0 42 6 13 9 13 11 0 20 -8 6 -27 8 -42 6 -19 -4 -28 -1 -28 8 0 10
-51 28 -61 22z"/>
<path d="M5548 4993 c7 -3 16 -2 19 1 4 3 -2 6 -13 5 -11 0 -14 -3 -6 -6z"/>
<path d="M5920 4810 c0 -5 5 -10 10 -10 6 0 10 5 10 10 0 6 -4 10 -10 10 -5 0
-10 -4 -10 -10z"/>
<path d="M6400 4670 c0 -5 4 -10 9 -10 6 0 13 5 16 10 3 6 -1 10 -9 10 -9 0
-16 -4 -16 -10z"/>
<path d="M6520 4660 c0 -5 7 -10 15 -10 8 0 15 5 15 10 0 6 -7 10 -15 10 -8 0
-15 -4 -15 -10z"/>
<path d="M5203 4884 c-3 -8 2 -23 11 -32 15 -15 16 -14 16 16 0 33 -16 43 -27
16z"/>
<path d="M4880 7209 c-56 -117 -105 -206 -126 -230 -8 -8 -14 -20 -14 -26 0
-6 -3 -13 -7 -15 -17 -7 -72 -137 -83 -196 -16 -82 -8 -176 19 -230 32 -63
146 -174 211 -205 131 -63 239 -69 344 -18 81 39 131 87 162 156 46 101 48
182 6 285 -31 76 -55 109 -86 116 -16 3 -24 9 -18 13 12 7 5 51 -8 51 -4 0
-11 -8 -14 -17 -5 -12 -10 -13 -18 -5 -8 8 -8 15 0 25 10 11 7 20 -9 41 -24
31 -36 28 -19 -4 11 -21 9 -20 -24 5 -31 24 -36 32 -31 55 7 31 -19 50 -29 23
-6 -14 -8 -14 -21 3 -8 10 -15 29 -15 42 0 16 -6 22 -22 22 -17 0 -19 3 -10 9
11 6 -2 30 -54 97 -37 49 -71 93 -75 98 -5 5 -31 -37 -59 -95z m104 -326 c3
-21 6 -60 6 -86 0 -27 16 -105 36 -175 41 -145 48 -223 22 -248 -15 -16 -17
-14 -28 27 -10 42 -18 63 -69 184 -32 79 -42 131 -35 187 6 51 42 148 55 148
4 0 9 -17 13 -37z m207 -122 c46 -118 14 -226 -80 -279 l-24 -14 6 49 c4 26 7
113 8 193 1 80 4 151 7 158 8 21 59 -45 83 -107z m159 30 c0 -3 -9 -12 -20
-19 -11 -7 -20 -8 -20 -3 0 5 -3 16 -6 24 -4 11 1 13 20 10 14 -3 26 -8 26
-12z m26 -96 c-15 -15 -16 -14 -16 16 0 31 1 32 16 17 16 -15 16 -18 0 -33z
m23 -60 l0 -20 -9 20 c-5 11 -9 27 -9 35 -1 13 0 13 9 0 5 -8 9 -24 9 -35z"/>
<path d="M2780 7165 c-26 -14 -52 -76 -44 -103 24 -73 64 -85 101 -28 24 37
38 95 26 111 -18 23 -58 33 -83 20z"/>
<path d="M4090 7158 c0 -16 20 -47 20 -33 0 6 7 1 15 -9 8 -11 18 -17 21 -13
7 7 -36 66 -48 66 -5 1 -8 -5 -8 -11z"/>
<path d="M2955 7125 c-31 -31 -35 -103 -7 -128 43 -39 132 -25 147 23 8 25 -2
78 -21 108 -21 32 -86 31 -119 -3z"/>
<path d="M2537 7119 c-11 -6 -25 -26 -33 -45 -11 -27 -20 -34 -42 -34 -41 0
-102 -76 -102 -128 0 -43 99 -83 154 -62 26 9 28 14 22 45 -6 30 -4 35 12 35
10 0 23 -5 30 -12 9 -9 15 -9 24 0 7 7 20 12 30 12 10 0 18 3 18 6 0 19 -33
114 -39 114 -4 0 -16 18 -27 40 -21 44 -21 44 -47 29z"/>
<path d="M1465 6898 c-11 -6 -28 -21 -38 -32 -34 -40 -1 -176 44 -176 33 0 85
26 107 55 38 48 25 117 -28 148 -33 20 -57 21 -85 5z"/>
<path d="M1747 6880 c-31 -24 -42 -66 -27 -104 8 -21 7 -32 -5 -49 -19 -28
-19 -67 1 -95 13 -19 24 -22 57 -20 l42 3 3 64 c3 59 6 68 38 97 26 25 34 41
34 69 0 29 -5 37 -26 45 -41 16 -89 12 -117 -10z"/>
<path d="M2731 6857 c-80 -41 -85 -147 -10 -226 28 -30 78 -24 128 17 35 29
36 31 36 102 0 66 -2 74 -28 96 -31 27 -86 32 -126 11z"/>
<path d="M3013 6843 c-40 -27 -23 -102 36 -158 l32 -30 45 24 c25 14 51 36 58
50 19 36 9 87 -22 111 -31 25 -116 27 -149 3z"/>
<path d="M1988 6747 c-36 -33 -42 -60 -22 -99 20 -38 32 -52 58 -61 20 -8 86
12 86 25 0 4 6 8 14 8 16 0 26 30 26 77 0 67 -107 100 -162 50z"/>
<path d="M1216 6706 c-60 -27 -96 -133 -61 -182 19 -27 80 -57 103 -50 10 3
24 16 32 28 8 12 25 32 38 45 16 18 22 36 22 72 0 88 -53 122 -134 87z"/>
<path d="M2483 6670 c-20 -8 -23 -17 -23 -70 0 -55 3 -65 30 -92 l30 -30 29
19 c16 10 41 32 55 50 30 36 28 49 -21 95 -33 31 -69 41 -100 28z"/>
<path d="M3185 6622 c-11 -4 -31 -15 -44 -24 -22 -15 -23 -22 -18 -77 3 -33
13 -91 23 -130 l19 -71 -30 -26 c-40 -34 -73 -51 -118 -59 -20 -4 -40 -11 -43
-16 -3 -5 -10 -6 -16 -3 -7 5 -9 1 -5 -9 3 -10 2 -17 -3 -17 -6 0 -10 -5 -10
-11 0 -6 7 -9 14 -6 8 3 29 -1 45 -9 37 -19 98 -5 148 33 31 24 113 170 113
204 0 8 7 23 15 33 19 26 19 97 0 143 -22 52 -40 61 -90 45z"/>
<path d="M1556 6612 c-6 -10 17 -133 29 -151 8 -14 35 -14 35 0 0 5 4 8 9 5 9
-6 21 40 21 85 0 19 -8 33 -22 43 -33 20 -65 28 -72 18z"/>
<path d="M2791 6571 c-26 -24 -31 -36 -31 -76 0 -44 24 -97 55 -117 5 -4 35
-33 67 -64 61 -62 88 -67 88 -16 0 20 -7 32 -22 39 l-23 11 26 10 c26 10 27
14 24 70 -5 90 -46 152 -102 152 -12 0 -25 5 -28 10 -10 16 -21 12 -54 -19z"/>
<path d="M2163 6543 c-12 -2 -34 -18 -48 -35 -22 -26 -25 -38 -20 -67 13 -67
21 -74 78 -68 29 2 64 9 80 15 23 10 27 17 27 51 0 47 -27 98 -55 105 -21 6
-26 6 -62 -1z"/>
<path d="M1874 6498 c-36 -25 -74 -77 -74 -100 0 -8 11 -27 25 -42 26 -28 70
-34 108 -15 32 17 37 28 37 86 0 44 -4 55 -26 72 -33 26 -32 26 -70 -1z"/>
<path d="M7283 6449 c-17 -5 -43 -23 -57 -40 -22 -26 -25 -38 -20 -68 7 -40
44 -81 76 -81 31 0 76 31 89 62 13 32 6 84 -17 116 -16 24 -23 25 -71 11z"/>
<path d="M1610 6406 c-21 -25 -25 -41 -25 -94 0 -59 3 -66 27 -85 21 -16 125
-41 135 -33 6 5 15 138 10 158 -7 27 -55 66 -95 77 -23 7 -31 3 -52 -23z"/>
<path d="M2556 6409 c-49 -39 -29 -116 40 -149 50 -25 117 -24 122 1 3 19 -78
130 -112 152 -23 15 -26 15 -50 -4z"/>
<path d="M1147 6319 c-63 -32 -78 -113 -29 -161 25 -25 32 -27 64 -17 27 7 46
23 73 60 40 55 40 49 -10 105 -11 11 -51 35 -57 33 -2 -1 -20 -10 -41 -20z"/>
<path d="M1340 6297 c-14 -7 -25 -21 -25 -32 0 -12 9 -22 25 -26 32 -9 105
-11 113 -3 12 12 -23 64 -42 64 -11 0 -25 2 -33 5 -7 3 -24 -1 -38 -8z"/>
<path d="M7580 6224 c-29 -15 -60 -77 -53 -105 8 -29 25 -38 84 -45 46 -5 59
-3 89 18 48 32 50 65 10 112 -26 30 -39 36 -69 35 -20 -1 -47 -7 -61 -15z"/>
<path d="M1760 6183 c0 -5 19 -19 43 -33 57 -34 64 -36 48 -16 -17 20 -91 60
-91 49z"/>
<path d="M7356 6159 c-31 -24 -33 -57 -7 -86 11 -12 18 -23 15 -26 -3 -2 8 -9
24 -15 20 -7 33 -6 45 3 18 13 47 74 47 99 0 45 -78 61 -124 25z m94 -21 c0
-11 -68 -10 -74 1 -3 5 12 8 34 7 22 0 40 -4 40 -8z m-30 -68 c0 -11 -7 -20
-15 -20 -15 0 -21 21 -8 33 12 13 23 7 23 -13z"/>
<path d="M7029 6153 c-9 -10 -22 -35 -29 -56 -11 -37 -11 -41 17 -75 37 -46
75 -57 121 -35 47 22 68 72 47 111 -30 55 -43 65 -92 69 -36 2 -52 -1 -64 -14z"/>
<path d="M2083 6143 c-30 -6 -83 -59 -83 -83 0 -20 -49 -60 -72 -60 -8 0 -20
-11 -26 -25 -7 -15 -20 -25 -32 -25 -12 0 -30 -5 -41 -11 -11 -6 -37 -12 -57
-14 -59 -6 -115 -30 -135 -57 -16 -21 -17 -31 -8 -63 12 -44 35 -64 74 -65 34
0 87 26 87 43 1 18 68 87 86 87 9 0 24 -20 36 -47 11 -27 29 -59 39 -72 11
-13 19 -31 19 -39 0 -20 72 -131 85 -132 11 -1 178 -255 183 -279 6 -24 43
-61 63 -61 10 0 19 10 22 27 7 37 -28 175 -55 215 -70 102 -189 244 -295 354
-18 18 -33 40 -33 48 0 14 45 125 55 134 2 2 19 -5 37 -16 92 -56 133 -30 125
80 -4 58 -6 63 -28 64 -13 1 -34 0 -46 -3z"/>
<path d="M1416 6084 c-27 -42 -28 -47 -12 -62 22 -22 119 -41 143 -28 25 13
33 27 33 58 0 36 -54 78 -101 78 -30 0 -38 -6 -63 -46z"/>
<path d="M1850 6100 c0 -5 5 -10 10 -10 6 0 10 5 10 10 0 6 -4 10 -10 10 -5 0
-10 -4 -10 -10z"/>
<path d="M1280 6052 c-43 -19 -62 -42 -67 -80 -8 -56 2 -87 32 -100 42 -19 83
-4 105 39 26 49 23 87 -9 122 -25 28 -35 31 -61 19z"/>
<path d="M726 6007 c-48 -30 -65 -60 -66 -115 0 -75 35 -119 115 -147 38 -12
55 -13 88 -4 53 14 66 25 88 74 33 71 21 132 -35 185 -40 36 -136 40 -190 7z"/>
<path d="M7223 5931 c-30 -25 -29 -52 2 -86 23 -23 31 -26 63 -20 50 9 52 11
52 50 0 24 -7 39 -26 54 -33 26 -62 26 -91 2z"/>
<path d="M6819 5891 c-33 -33 -40 -90 -14 -111 8 -7 15 -18 15 -25 0 -8 13
-16 28 -20 16 -3 35 -18 46 -35 34 -58 135 -81 175 -41 25 25 44 94 36 130 -5
26 -55 61 -86 61 -5 0 -25 16 -45 35 -29 30 -42 35 -80 35 -37 0 -51 -6 -75
-29z"/>
<path d="M1415 5888 c-29 -16 -35 -28 -35 -74 0 -52 25 -76 80 -78 51 -1 79
30 80 87 0 34 -4 40 -32 51 -57 23 -72 26 -93 14z"/>
<path d="M7900 5860 c0 -5 5 -10 10 -10 6 0 8 -11 4 -25 -4 -15 -2 -25 5 -25
6 0 11 16 11 35 0 24 -5 35 -15 35 -8 0 -15 -4 -15 -10z"/>
<path d="M2352 5809 c-34 -13 -57 -46 -71 -100 -20 -77 8 -108 106 -115 47 -4
57 -1 78 20 45 45 29 138 -31 185 -29 23 -46 25 -82 10z"/>
<path d="M7920 5765 c-2 -11 -2 -30 -1 -42 1 -14 -4 -23 -12 -23 -8 0 -20 -7
-27 -15 -7 -9 -21 -13 -35 -9 -13 3 -26 1 -29 -5 -4 -6 -27 -11 -52 -11 -24 0
-44 -4 -44 -10 0 -19 -39 -10 -45 10 -10 31 -75 15 -75 -20 0 -8 6 -8 21 0 22
12 54 6 45 -9 -3 -5 -22 -11 -42 -13 -29 -3 -38 -1 -42 14 -6 23 -34 24 -30 1
2 -13 -5 -19 -27 -21 -16 -2 -50 -17 -74 -34 -31 -21 -53 -28 -73 -26 -17 3
-28 0 -28 -7 0 -19 -33 -43 -57 -40 -12 1 -20 -2 -17 -6 3 -5 -7 -11 -21 -15
-14 -3 -25 -10 -25 -15 0 -5 -5 -9 -11 -9 -16 0 -123 -99 -131 -121 -4 -11
-12 -19 -17 -19 -14 0 -104 -129 -129 -185 -58 -133 -67 -181 -67 -350 l0
-160 39 -100 c21 -55 41 -102 43 -105 7 -7 40 38 84 115 22 39 44 77 49 85 5
8 44 74 87 145 82 139 137 221 162 245 9 8 36 40 61 70 59 72 142 161 147 156
11 -11 -83 -176 -168 -296 -44 -62 -68 -102 -129 -215 -103 -192 -150 -284
-150 -294 0 -14 92 -14 218 -1 129 14 268 62 362 125 124 83 241 251 281 402
27 103 29 384 4 548 -9 61 -23 148 -30 195 -7 47 -14 76 -15 65z m2 -120 c-12
-22 -27 -2 -18 22 5 12 10 13 17 6 7 -7 8 -17 1 -28z m-42 -9 c0 -7 -11 -16
-25 -18 -30 -6 -38 0 -22 18 16 17 47 18 47 0z m48 -51 c2 -11 0 -16 -5 -10
-4 6 -19 16 -33 23 l-25 12 30 -3 c21 -1 31 -8 33 -22z m-78 5 c0 -5 -5 -10
-11 -10 -5 0 -7 5 -4 10 3 6 8 10 11 10 2 0 4 -4 4 -10z m-170 -10 c0 -5 -2
-10 -4 -10 -3 0 -8 5 -11 10 -3 6 -1 10 4 10 6 0 11 -4 11 -10z m153 -17 c-7
-2 -19 -2 -25 0 -7 3 -2 5 12 5 14 0 19 -2 13 -5z"/>
<path d="M7806 5761 c-4 -5 -2 -12 3 -15 5 -4 12 -2 15 3 4 5 2 12 -3 15 -5 4
-12 2 -15 -3z"/>
<path d="M7465 5620 c-3 -5 -1 -10 4 -10 6 0 11 5 11 10 0 6 -2 10 -4 10 -3 0
-8 -4 -11 -10z"/>
<path d="M731 5503 c-115 -22 -138 -206 -32 -250 58 -25 119 -12 159 32 31 33
34 42 29 81 -5 50 -43 106 -87 129 -16 8 -33 14 -37 14 -4 -1 -19 -4 -32 -6z"/>
<path d="M1229 5506 c-2 -2 -37 -7 -78 -10 -80 -6 -101 -15 -76 -36 8 -7 15
-18 15 -25 0 -8 4 -15 9 -17 11 -4 66 -91 116 -183 105 -192 165 -255 300
-310 64 -26 83 -29 241 -34 l170 -6 66 -68 c90 -93 104 -90 100 22 -1 47 -7
103 -13 125 -6 23 -21 86 -33 141 -13 55 -29 111 -36 125 -61 115 -239 237
-385 265 -69 14 -385 22 -396 11z m284 -233 c12 -7 17 -13 10 -13 -13 0 -5
-41 11 -52 8 -5 7 -8 -1 -8 -20 0 -64 53 -51 61 8 5 2 10 -15 14 -23 6 -67 51
-67 69 0 3 21 -9 46 -27 25 -18 55 -38 67 -44z m124 -67 c48 -24 105 -51 126
-59 82 -35 20 -33 -121 3 -40 11 -77 22 -82 25 -16 10 -11 25 8 25 12 1 9 5
-11 16 -15 8 -25 19 -22 24 8 14 4 15 102 -34z"/>
<path d="M698 4773 c7 -3 16 -2 19 1 4 3 -2 6 -13 5 -11 0 -14 -3 -6 -6z"/>
<path d="M948 4760 c-9 -6 -14 -18 -11 -29 4 -18 1 -19 -33 -11 -30 7 -42 5
-56 -7 -15 -13 -22 -14 -41 -4 -17 9 -30 9 -52 1 -15 -6 -42 -8 -59 -6 -17 3
-25 3 -18 0 16 -8 15 -22 -7 -68 -18 -37 -19 -38 -30 -18 -6 11 -11 26 -11 32
0 6 -7 18 -15 26 -8 8 -12 21 -9 29 4 8 1 15 -5 15 -13 0 -14 -33 -2 -74 5
-17 16 -65 24 -106 41 -200 86 -350 106 -350 6 0 13 -10 17 -22 13 -43 193
-248 217 -248 13 0 127 -110 127 -123 0 -12 -70 1 -138 24 -121 42 -318 73
-311 50 7 -21 175 -217 259 -302 187 -188 331 -282 516 -332 120 -33 171 -41
419 -62 124 -11 205 -31 298 -75 26 -13 51 -20 54 -16 4 3 -12 41 -34 84 -32
60 -46 103 -63 192 -36 198 -39 212 -69 330 -17 63 -39 156 -50 205 -19 90
-64 200 -99 245 -10 14 -35 49 -55 77 -75 107 -126 163 -148 163 -10 0 -19 5
-19 10 0 6 -10 10 -22 10 -17 0 -19 3 -10 12 9 9 5 18 -19 41 -24 21 -34 25
-40 16 -6 -10 -11 -10 -23 0 -12 10 -13 17 -6 26 8 9 3 21 -20 43 -17 17 -39
34 -50 37 -11 4 -20 11 -20 16 0 5 -8 9 -17 9 -9 0 -24 7 -33 15 -39 35 -192
104 -289 129 -57 15 -106 24 -109 21 -9 -9 21 -26 35 -20 7 2 15 0 18 -5 7
-11 -44 -14 -69 -4 -8 3 -12 12 -9 20 6 16 4 17 -19 4z m37 -50 c-3 -5 -10
-10 -16 -10 -5 0 -9 5 -9 10 0 6 7 10 16 10 8 0 12 -4 9 -10z m210 -20 c3 -5
2 -10 -4 -10 -5 0 -13 5 -16 10 -3 6 -2 10 4 10 5 0 13 -4 16 -10z m139 -81
c-6 -11 -24 -2 -24 11 0 5 7 7 15 4 8 -4 12 -10 9 -15z m93 -45 c-3 -3 -12 -4
-19 -1 -8 3 -5 6 6 6 11 1 17 -2 13 -5z m68 -24 c18 -7 18 -9 3 -15 -10 -4
-27 0 -40 9 -21 15 -21 16 -3 15 11 0 29 -4 40 -9z m-295 -198 c53 -42 122
-114 115 -120 -6 -7 -43 19 -127 88 -88 72 -108 91 -108 102 0 11 67 -28 120
-70z m323 -538 c4 -8 20 -20 35 -28 54 -28 429 -414 461 -475 11 -20 11 -22
-6 -12 -10 5 -54 43 -99 83 -172 158 -240 205 -361 249 -32 12 -62 25 -67 30
-6 5 -18 9 -27 9 -10 0 -19 4 -21 10 -1 5 -23 14 -48 19 -85 18 -290 90 -290
102 0 17 48 9 104 -17 31 -14 86 -30 123 -36 38 -6 73 -17 79 -24 6 -8 22 -14
36 -14 22 0 25 4 20 26 -3 17 -9 23 -19 19 -11 -4 -13 -1 -9 11 3 8 6 26 6 39
0 36 63 42 83 9z"/>
<path d="M1750 4740 c-46 -46 -31 -98 41 -139 46 -26 69 -26 96 -1 31 28 36
55 19 89 -35 67 -114 93 -156 51z"/>
<path d="M8214 4566 c-24 -17 -126 -68 -179 -90 -22 -10 -48 -21 -57 -26 -10
-6 -26 -10 -35 -11 -10 0 -43 -9 -73 -19 l-55 -19 47 0 c26 -1 50 -5 53 -11 3
-5 1 -10 -6 -10 -10 0 -10 -3 -1 -12 19 -19 14 -28 -13 -28 -14 0 -25 -4 -25
-10 0 -5 -7 -10 -15 -10 -8 0 -15 -5 -15 -11 0 -8 -5 -8 -15 1 -23 19 -18 30
15 30 20 0 30 5 30 15 0 17 -35 21 -45 5 -4 -6 -14 -8 -23 -6 -25 8 -46 -9
-40 -32 4 -14 2 -19 -7 -16 -7 3 -16 1 -20 -5 -3 -6 -16 -11 -28 -10 -20 1
-19 2 6 12 15 6 27 14 27 19 0 11 -27 10 -32 0 -1 -5 -17 -12 -35 -15 -27 -5
-33 -3 -39 15 -6 20 -7 20 -17 3 -7 -13 -7 -20 0 -22 13 -5 4 -43 -13 -60 -16
-16 -27 -4 -12 14 20 24 -5 35 -40 18 -17 -9 -34 -21 -37 -26 -4 -5 -11 -7
-16 -3 -5 3 -7 10 -3 15 3 5 10 7 15 4 5 -4 9 1 9 10 0 9 12 18 29 21 17 4 32
12 35 20 3 8 3 14 0 14 -14 0 -196 -125 -209 -143 -8 -12 -15 -18 -15 -14 0
11 -100 -110 -131 -158 -27 -43 -109 -255 -109 -283 0 -16 -28 -127 -50 -195
-15 -49 13 -42 106 27 48 35 111 76 140 90 50 25 60 26 161 21 125 -5 168 5
280 65 124 67 224 157 288 261 6 9 21 34 36 55 37 57 75 151 104 258 25 92 58
257 52 263 -2 1 -12 -4 -23 -11z m-204 -141 c-7 -8 -17 -12 -22 -9 -6 4 -5 10
3 15 22 14 33 10 19 -6z m-50 -31 c0 -18 -14 -18 -29 0 -9 11 -9 15 1 19 17 6
28 -1 28 -19z m46 -41 c-2 -2 -20 -7 -41 -10 -30 -5 -37 -3 -33 8 3 8 13 16
24 18 10 2 23 10 28 19 8 13 10 12 18 -8 5 -12 7 -25 4 -27z m54 3 c0 -3 -4
-8 -10 -11 -5 -3 -10 -1 -10 4 0 6 5 11 10 11 6 0 10 -2 10 -4z m-134 -42 c-4
-10 1 -22 10 -29 12 -8 13 -14 6 -19 -14 -8 -36 30 -28 50 3 8 8 14 12 14 3 0
3 -7 0 -16z m-234 -61 c13 -17 1 -17 -16 -1 -7 7 -10 22 -7 33 5 20 5 20 9 0
2 -11 9 -26 14 -32z m155 -10 c-3 -10 -5 -4 -5 12 0 17 2 24 5 18 2 -7 2 -21
0 -30z m203 -34 c0 -4 -7 -6 -15 -3 -8 4 -15 10 -15 15 0 4 7 6 15 3 8 -4 15
-10 15 -15z m-430 7 c0 -3 -4 -8 -10 -11 -5 -3 -10 -1 -10 4 0 6 5 11 10 11 6
0 10 -2 10 -4z"/>
<path d="M7730 4380 c-22 -6 -23 -8 -7 -15 11 -4 23 -3 30 4 15 15 7 19 -23
11z"/>
<path d="M8381 3704 c-81 -37 -137 -50 -341 -83 -407 -65 -463 -78 -585 -137
-201 -96 -307 -177 -380 -290 -62 -94 -84 -159 -125 -369 -6 -33 -20 -77 -31
-99 -11 -21 -19 -40 -17 -41 12 -12 398 240 473 308 52 48 655 349 655 327 0
-5 -35 -30 -77 -57 -43 -26 -100 -66 -128 -88 -27 -22 -97 -72 -155 -110 -58
-38 -110 -74 -117 -80 -78 -67 -200 -152 -387 -270 -33 -20 -64 -42 -71 -48
-6 -7 -26 -23 -43 -37 -18 -14 -32 -28 -32 -31 0 -6 33 -16 135 -38 153 -34
387 -32 512 4 75 22 208 81 273 122 112 71 250 229 322 369 87 169 188 520
188 653 0 26 -2 26 -69 -5z"/>
<path d="M1350 2966 c-36 -5 -67 -12 -70 -15 -3 -3 -39 -8 -80 -10 -41 -2 -77
-7 -80 -11 -3 -4 -29 -10 -59 -13 -30 -4 -61 -13 -70 -21 -9 -8 -27 -14 -41
-14 -38 0 -145 -19 -166 -30 -27 -13 -82 -32 -129 -43 -44 -11 -65 -25 -62
-42 1 -6 -8 -13 -20 -15 -13 -2 -23 2 -23 8 0 7 -6 8 -19 0 -11 -5 -29 -10
-40 -10 -11 0 -22 -4 -26 -9 -10 -16 373 -388 635 -616 115 -100 243 -168 470
-247 65 -23 109 -31 186 -35 169 -9 386 28 479 81 22 13 72 41 110 61 39 21
106 68 150 104 44 36 91 73 104 82 20 13 22 18 12 36 -7 15 -20 21 -38 21 -16
0 -48 2 -73 6 -179 28 -243 37 -380 55 -85 11 -229 30 -320 41 -91 12 -203 30
-250 40 -47 10 -123 23 -170 30 -218 29 -502 98 -526 127 -6 7 -18 13 -26 13
-21 0 -80 21 -74 27 2 2 78 -7 168 -21 159 -25 448 -64 638 -87 52 -6 178 -26
280 -44 102 -19 205 -36 230 -39 168 -20 240 -30 353 -53 70 -14 130 -24 132
-22 8 9 -36 150 -66 213 -27 57 -143 196 -163 196 -4 0 -14 7 -22 15 -9 8 -24
15 -35 15 -10 0 -19 6 -19 13 0 16 -24 36 -80 66 -25 14 -47 27 -50 31 -16 20
-117 59 -240 91 -111 29 -401 43 -530 25z"/>
<path d="M6755 2402 c-138 -53 -266 -160 -363 -307 -64 -97 -71 -107 -81 -130
-5 -11 -30 -41 -55 -68 -58 -60 -59 -74 -3 -81 347 -41 498 -42 647 -5 187 48
399 189 510 339 26 36 66 85 89 109 23 24 40 49 38 55 -2 6 -21 14 -43 17 -21
4 -84 18 -139 32 -167 42 -213 48 -385 53 -145 4 -171 2 -215 -14z m668 -142
c-3 -11 -9 -23 -14 -26 -5 -3 -64 -13 -131 -24 -132 -20 -240 -47 -413 -106
-211 -72 -250 -86 -322 -117 -40 -17 -76 -27 -80 -22 -5 4 -3 10 4 12 6 2 37
23 70 45 148 104 225 131 708 246 22 6 72 10 112 11 67 1 71 0 66 -19z"/>
<path d="M2846 2021 c-4 -6 -17 -11 -29 -11 -12 -1 -33 -7 -47 -15 l-25 -14
27 -1 c14 0 29 6 31 13 3 7 6 5 6 -5 1 -12 -6 -18 -19 -18 -16 0 -20 -7 -20
-35 0 -18 -6 -38 -13 -42 -8 -4 -16 -16 -20 -25 -4 -12 -17 -18 -35 -18 -15 0
-37 -7 -48 -15 -30 -23 -64 -19 -65 8 -1 20 -2 20 -6 2 -6 -23 -23 -45 -23
-28 0 18 -49 21 -101 6 -28 -8 -70 -13 -94 -11 -38 3 -42 1 -34 -14 5 -9 24
-27 41 -39 18 -13 69 -55 113 -94 44 -39 98 -85 120 -101 97 -73 316 -181 455
-225 90 -28 119 -32 205 -32 109 1 264 23 335 48 25 9 92 23 149 31 110 15
124 20 102 33 -14 9 -12 7 -115 161 -89 134 -163 207 -309 304 -172 115 -222
130 -438 141 -95 5 -139 4 -143 -4z m84 -11 c12 -8 11 -10 -7 -10 -13 0 -23 5
-23 10 0 13 11 13 30 0z m-50 -10 c0 -5 -12 -10 -26 -10 -14 0 -23 4 -19 10 3
6 15 10 26 10 10 0 19 -4 19 -10z m165 -271 c117 -35 137 -42 315 -103 74 -25
144 -51 155 -56 29 -13 97 -43 115 -50 38 -14 141 -72 137 -76 -3 -3 -99 26
-213 64 -115 38 -263 86 -329 107 -137 43 -435 165 -435 178 0 6 149 -32 255
-64z m525 -39 c0 -5 -4 -10 -9 -10 -6 0 -13 5 -16 10 -3 6 1 10 9 10 9 0 16
-4 16 -10z"/>
</g>
</svg>
